<?xml version="1.0" encoding="UTF-8"?>
<svg width="459" height="558" version="1.1" viewBox="0 0 459 558" xmlns="http://www.w3.org/2000/svg" xmlns:cc="http://creativecommons.org/ns#" xmlns:dc="http://purl.org/dc/elements/1.1/" xmlns:rdf="http://www.w3.org/1999/02/22-rdf-syntax-ns#">
 <metadata>
  <rdf:RDF>
   <cc:Work rdf:about="">
    <dc:format>image/svg+xml</dc:format>
    <dc:type rdf:resource="http://purl.org/dc/dcmitype/StillImage"/>
    <dc:title/>
   </cc:Work>
  </rdf:RDF>
 </metadata>
 <path d="m11.643 555.59c-0.825-0.3139-1.8306-1.0657-2.2347-1.6708-2.6335-3.9432-1.2614-5.6231 51.561-63.132 28.779-31.333 72.156-78.568 96.391-104.97 26.459-28.822 43.609-48.258 42.924-48.647-0.62783-0.3558-35.792-10.831-78.142-23.279-42.35-12.448-85.55-25.145-96-28.217-10.45-3.0714-20.012-6.2187-21.25-6.994-2.2096-1.3842-2.9437-4.8112-1.4847-6.9309 0.98638-1.4331 9.4106-6.604 239.93-147.27 110.11-67.189 201.03-122.16 202.06-122.16 3.1609 0 5.4501 2.3591 5.0838 5.2391-0.30815 2.4231-28.288 33.263-177.55 195.7-12.344 13.433-14.893 16.695-13.5 17.273 0.94455 0.39218 44.917 11.535 97.717 24.763s97.012 24.484 98.25 25.016c2.5166 1.0805 3.0208 4.6862 1 7.1518-0.6875 0.83882-4.85 3.7868-9.25 6.5511s-97.775 61.493-207.5 130.51c-232.95 146.52-223.9 140.85-225.36 141.29-0.62692 0.19092-1.8148 0.0903-2.6398-0.22359z" fill="#202428"/>
</svg>
