<?xml version="1.0" encoding="utf-8"?>
<!-- Generator: Adobe Illustrator 16.0.0, SVG Export Plug-In . SVG Version: 6.00 Build 0)  -->
<!DOCTYPE svg PUBLIC "-//W3C//DTD SVG 1.1//EN" "http://www.w3.org/Graphics/SVG/1.1/DTD/svg11.dtd">
<svg version="1.1" id="Layer_1" xmlns="http://www.w3.org/2000/svg" xmlns:xlink="http://www.w3.org/1999/xlink" x="0px" y="0px"
	 width="283.464px" height="283.464px" viewBox="0 0 283.464 283.464" enable-background="new 0 0 283.464 283.464"
	 xml:space="preserve">
<circle fill="#FFFFFF" cx="141.306" cy="142.027" r="140.136"/>
<g>
	<path fill="#4554A5" d="M100.704,12.459L53.419,187.968c0,0,19.741-101.122,33.525-171.582
		C38.402,37.419,4.436,85.754,4.436,142.027c0,75.593,61.28,136.871,136.87,136.871c9.193,0,18.175-0.912,26.861-2.642
		C144.572,184.005,100.704,12.459,100.704,12.459z"/>
	<path fill="#4554A5" d="M141.306,5.157c-9.193,0-18.173,0.914-26.858,2.642c23.595,92.251,67.465,263.794,67.465,263.794
		l47.279-175.507c0,0-19.739,101.122-33.523,171.583c48.544-21.034,82.507-69.367,82.507-125.641
		C278.175,66.435,216.897,5.157,141.306,5.157z"/>
</g>
</svg>
